<?xml version="1.0" encoding="utf-8"?>
<!-- Generator: Adobe Illustrator 21.0.0, SVG Export Plug-In . SVG Version: 6.00 Build 0)  -->
<svg version="1.1" id="Layer_1" xmlns="http://www.w3.org/2000/svg" xmlns:xlink="http://www.w3.org/1999/xlink" x="0px" y="0px"
	 viewBox="0 0 191.4 33" style="enable-background:new 0 0 191.4 33;" xml:space="preserve">
<style type="text/css">
	.st0{fill:#C1A500;}
</style>
<path class="st0" d="M19.7,18.4l-2.6,3.3L26,33h5.2L19.7,18.4z M26,0L15.6,13.2L5.2,0H0l13,16.5L0,33h5.2l8.2-10.3l4.9-6.2l2.5-3.2
	L31.2,0H26z M55.6,22.1c0.2-1.1,0.2-2.1,0.2-3.1c0-6.8-3.4-10.3-10.4-10.3c-7.4,0-11.1,4-11.1,11.9c0,8.3,4.2,12.4,12.5,12.4
	c3.1,0,5.7-0.3,7.8-0.9v-3.4c-2.1,0.6-4.6,0.9-7.3,0.9c-5.6,0-8.4-2.3-8.7-6.8h0c0,0-0.1-3,0-4.2c0-0.2,0-0.3,0-0.4
	c0.4-4,2.7-6,6.9-6c4.1,0,6.2,2.1,6.3,6.4H40.9c0,0,0,0,0,0l-0.1,3.5H55.6z"/>
<path class="st0" d="M71.9,8.7c-7.7,0-11.5,4.1-11.5,12.1c0,8,3.9,12.1,11.5,12.1c7.7,0,11.5-4,11.5-12.1
	C83.5,12.8,79.6,8.7,71.9,8.7z M71.9,29.6c-4.8,0-7.3-2.9-7.3-8.8c0-5.7,2.5-8.6,7.3-8.6c4.9,0,7.3,2.9,7.3,8.6
	C79.2,26.6,76.8,29.6,71.9,29.6z M99.4,8.7c-1.2,0-2.4,0.1-3.5,0.4l-0.1,3.7c1.1-0.3,2.3-0.4,3.5-0.4c4.9,0,7.3,2.6,7.3,7.8
	c0,6.1-2.7,9.2-8,9.2c-2,0-3.7-0.2-5.1-0.7v-15h0l0-3.9V0h-4.3v32c2.9,0.7,6.1,1,9.6,1c8,0,12.1-4.2,12.1-12.6
	C110.9,12.6,107.1,8.7,99.4,8.7z M120.3,11.9l-0.8-3.1h-2.9V33h4.3V15.4c1.8-2,4.1-3.1,7.1-3.1V8.7C125,8.7,122.4,9.8,120.3,11.9z
	 M140.8,8.7c-2.5,0-5.1,0.4-7.7,1.2v3.5c2.6-0.8,5.2-1.2,7.7-1.2c4.4,0,6.5,1.4,6.5,4.2v2.3h0l-0.1,3.4h0.1v5.1
	c-2.1,1.6-4.5,2.4-7.5,2.4c-2.9,0-4.4-1.3-4.4-3.9c0-2.7,1.8-3.9,5.6-3.9c1.3,0,2.6,0.1,3.9,0.2v-3.4c-1.3-0.1-2.6-0.2-3.9-0.2
	c-6.6,0-9.8,2.5-9.8,7.5c0,4.9,2.9,7.3,8.7,7.3c2.8,0,5.5-0.8,7.9-2.4l1.5,2.4h2.4V16.3C151.5,11.2,147.9,8.7,140.8,8.7z M158.9,0v4
	h4.2V0H158.9z M158.9,8.7V33h4.2V8.7H158.9z M182.4,8.7c-2.9,0-5.7,1-8.2,3.1l-0.8-3.1h-2.9V33h4.3V15.4c2.2-2,4.5-3.1,6.9-3.1
	c3.6,0,5.4,1.8,5.4,5.4V33h4.2V17.8C191.4,11.8,188.4,8.7,182.4,8.7z"/>
</svg>
