<?xml version="1.0" encoding="utf-8"?>
<!-- Generator: Adobe Illustrator 21.0.0, SVG Export Plug-In . SVG Version: 6.00 Build 0)  -->
<svg version="1.1" id="Layer_1" xmlns="http://www.w3.org/2000/svg" xmlns:xlink="http://www.w3.org/1999/xlink" x="0px" y="0px"
	 viewBox="0 0 192 33" style="enable-background:new 0 0 192 33;" xml:space="preserve">
<style type="text/css">
	.st0{fill:#919191;}
</style>
<path class="st0" d="M21.2,18.1l-2.6,3.2l8.8,11.1h5.1L21.2,18.1z M27.3,0L17.1,13L6.9,0H1.8l12.8,16.2L1.8,32.4h5.1l8-10.2l4.8-6.1
	l2.5-3.1L32.4,0H27.3z M56.4,21.7c0.1-1.1,0.2-2.1,0.2-3c0-6.7-3.4-10.1-10.2-10.1c-7.3,0-11,3.9-11,11.7c0,8.1,4.1,12.2,12.3,12.2
	c3,0,5.6-0.3,7.7-0.9v-3.4c-2.1,0.6-4.5,0.9-7.2,0.9c-5.5,0-8.3-2.3-8.5-6.7h0c0,0-0.1-2.9,0-4.2c0-0.2,0-0.3,0-0.4
	c0.4-3.9,2.6-5.9,6.7-5.9c4,0,6.1,2.1,6.1,6.3H42c0,0,0,0,0,0L42,21.7H56.4z"/>
<path class="st0" d="M72.5,8.6c-7.6,0-11.3,4-11.3,11.9c0,7.9,3.8,11.9,11.3,11.9c7.6,0,11.3-4,11.3-11.9
	C83.8,12.6,80.1,8.6,72.5,8.6z M72.5,29.1c-4.8,0-7.2-2.9-7.2-8.6c0-5.6,2.4-8.5,7.2-8.5c4.8,0,7.2,2.8,7.2,8.5
	C79.7,26.2,77.3,29.1,72.5,29.1z M99.5,8.6c-1.2,0-2.3,0.1-3.4,0.4L96,12.6c1.1-0.3,2.2-0.4,3.5-0.4c4.8,0,7.2,2.6,7.2,7.7
	c0,6-2.6,9.1-7.9,9.1c-2,0-3.7-0.2-5-0.7V13.6h0l0-3.8V0h-4.2v31.5c2.9,0.7,6,1,9.4,1c7.9,0,11.9-4.1,11.9-12.4
	C110.8,12.4,107,8.6,99.5,8.6z M120,11.7l-0.7-3.1h-2.8v23.9h4.2V15.1c1.8-2,4-3,6.9-3V8.6C124.6,8.6,122.1,9.6,120,11.7z
	 M140.2,8.6c-2.5,0-5,0.4-7.6,1.2v3.4c2.6-0.7,5.1-1.2,7.6-1.2c4.3,0,6.4,1.4,6.4,4.1v2.2h0l-0.1,3.4h0.1v5c-2,1.5-4.5,2.3-7.4,2.3
	c-2.9,0-4.3-1.3-4.3-3.9c0-2.6,1.8-3.9,5.5-3.9c1.3,0,2.6,0.1,3.8,0.1v-3.4c-1.3-0.1-2.6-0.2-3.8-0.2c-6.5,0-9.7,2.5-9.7,7.3
	c0,4.8,2.8,7.2,8.5,7.2c2.8,0,5.4-0.8,7.8-2.4l1.5,2.4h2.4V16C150.8,11.1,147.2,8.6,140.2,8.6z M158,0v4h4.2V0H158z M158,8.6v23.9
	h4.2V8.6H158z M181.1,8.6c-2.9,0-5.6,1-8,3.1l-0.7-3.1h-2.8v23.9h4.2V15.1c2.1-2,4.4-3,6.8-3c3.5,0,5.3,1.8,5.3,5.3v15h4.2v-15
	C190,11.6,187,8.6,181.1,8.6z"/>
</svg>
